<?xml version="1.0" standalone="no"?>
<!DOCTYPE svg PUBLIC "-//W3C//DTD SVG 20010904//EN"
 "http://www.w3.org/TR/2001/REC-SVG-20010904/DTD/svg10.dtd">
<svg version="1.0" xmlns="http://www.w3.org/2000/svg"
 width="310.000000pt" height="310.000000pt" viewBox="0 0 310.000000 310.000000"
 preserveAspectRatio="xMidYMid meet">
<metadata>
Created by potrace 1.11, written by Peter Selinger 2001-2013
</metadata>
<g transform="translate(0.000000,310.000000) scale(0.100000,-0.100000)"
fill="#000000" stroke="none">
<path d="M547 2784 c-4 -4 -23 -8 -44 -9 -64 -4 -66 -5 -123 -55 -19 -16 -31
-30 -27 -30 5 0 2 -7 -7 -15 -8 -9 -12 -23 -9 -32 5 -12 3 -14 -7 -8 -10 6
-12 4 -7 -8 3 -10 2 -17 -4 -17 -6 0 -6 -7 1 -20 8 -15 8 -20 -2 -20 -9 0 -9
-3 0 -12 7 -7 8 -17 1 -30 -7 -13 -6 -18 2 -18 8 0 8 -4 -1 -15 -7 -8 -8 -15
-3 -15 10 0 10 -41 -1 -58 -4 -7 -2 -12 5 -12 8 0 9 -4 0 -13 -8 -10 -7 -17 1
-25 7 -7 8 -12 2 -12 -6 0 -11 -7 -11 -15 0 -8 5 -15 10 -15 5 0 5 -5 -1 -13
-7 -8 -7 -18 -2 -27 5 -9 5 -19 -2 -27 -7 -9 -7 -13 2 -13 9 0 10 -3 1 -13 -8
-10 -7 -17 1 -25 7 -7 8 -12 2 -12 -6 0 -11 -7 -11 -15 0 -8 4 -15 9 -15 5 0
6 -6 1 -12 -11 -19 -12 -37 -2 -44 5 -3 4 -14 -2 -26 -6 -11 -7 -18 -2 -15 8
5 8 -17 0 -121 -2 -23 0 -48 4 -54 5 -7 3 -18 -3 -25 -7 -9 -7 -13 2 -13 10 0
10 -3 0 -15 -7 -8 -8 -15 -3 -15 5 0 8 -19 6 -42 -2 -24 -5 -60 -6 -81 -2 -20
0 -43 4 -49 5 -7 3 -18 -3 -25 -7 -9 -7 -13 2 -13 10 0 10 -3 0 -15 -9 -11 -9
-15 -1 -15 7 0 9 -5 5 -11 -10 -17 -11 -50 -3 -80 4 -16 2 -32 -4 -38 -8 -8
-7 -11 2 -11 10 0 11 -3 2 -13 -8 -10 -7 -17 1 -25 7 -7 8 -12 2 -12 -6 0 -11
-7 -11 -15 0 -8 5 -15 10 -15 5 0 5 -5 -1 -13 -7 -8 -7 -18 -2 -27 5 -9 5 -19
-2 -27 -7 -9 -7 -13 2 -13 9 0 10 -3 1 -13 -8 -10 -7 -17 1 -25 7 -7 8 -12 2
-12 -6 0 -11 -7 -11 -15 0 -8 4 -15 9 -15 5 0 6 -6 1 -12 -11 -18 -10 -32 2
-40 6 -5 5 -8 -3 -8 -10 0 -10 -5 -1 -21 8 -16 8 -20 -1 -14 -9 6 -9 2 -1 -14
9 -16 9 -21 0 -21 -8 0 -8 -4 1 -15 10 -12 10 -15 0 -15 -10 0 -10 -3 0 -15
10 -12 10 -15 0 -15 -10 0 -10 -3 0 -15 10 -12 10 -15 0 -15 -10 0 -10 -3 0
-15 10 -12 10 -15 0 -15 -10 0 -10 -3 0 -15 10 -12 10 -15 0 -15 -9 0 -9 -4
-2 -13 7 -8 7 -18 2 -27 -5 -8 -5 -21 1 -32 7 -12 6 -18 -1 -18 -7 0 -8 -6 -1
-18 6 -11 6 -24 0 -35 -7 -12 -6 -17 2 -17 8 0 8 -4 -1 -15 -10 -12 -10 -15 0
-15 10 0 10 -3 0 -15 -10 -12 -10 -15 0 -15 10 0 10 -3 1 -14 -9 -11 -9 -15 1
-19 10 -4 10 -6 -1 -6 -11 -1 -11 -4 -1 -16 10 -12 10 -15 0 -15 -9 0 -10 -3
-1 -13 8 -10 7 -17 -1 -25 -9 -9 -9 -12 1 -12 11 0 11 -3 1 -15 -7 -8 -8 -15
-3 -15 10 0 10 -41 -1 -58 -4 -7 -3 -12 1 -12 8 0 13 -20 17 -66 0 -11 6 -21
13 -21 7 0 9 5 6 10 -3 6 -1 7 6 3 6 -4 9 -11 6 -16 -5 -9 17 -36 35 -42 6 -2
12 -13 13 -25 1 -15 5 -19 13 -13 6 6 15 6 19 2 5 -4 5 0 1 8 -4 8 -1 7 7 -3
9 -11 18 -14 21 -8 4 6 15 7 29 2 12 -5 32 -7 45 -5 13 2 21 0 17 -5 -3 -5 0
-13 6 -17 7 -4 9 -3 6 2 -3 6 -2 16 4 24 6 11 9 12 9 2 0 -8 5 -10 12 -6 8 5
9 1 5 -12 -6 -16 -4 -15 10 3 13 16 22 20 32 14 8 -5 21 -7 29 -4 12 5 12 2 3
-15 -7 -12 -9 -22 -7 -22 3 0 12 12 20 28 8 15 15 22 16 16 0 -9 97 -12 135
-4 25 6 46 -1 40 -12 -4 -7 1 -4 9 6 9 11 16 14 16 7 0 -7 4 -10 9 -6 5 3 12
1 15 -4 8 -12 36 -8 45 8 6 9 10 8 15 -6 7 -17 8 -17 22 1 8 11 14 14 14 8 0
-7 5 -12 11 -12 5 0 7 4 4 10 -4 7 3 7 19 0 14 -5 26 -7 26 -4 0 4 8 0 17 -7
9 -8 14 -9 10 -2 -9 14 60 13 82 -1 10 -6 12 -5 7 2 -7 11 31 18 59 12 6 -1
17 -3 25 -5 8 -1 14 -8 12 -15 -1 -6 2 -9 8 -5 6 3 7 11 4 17 -5 7 0 9 14 6
12 -4 25 -2 28 3 3 6 11 5 20 -2 11 -9 18 -8 31 2 15 12 16 12 10 -4 -6 -16
-4 -16 16 -2 14 9 27 11 36 6 8 -5 25 -7 39 -5 21 4 23 2 14 -9 -9 -11 -8 -14
3 -14 8 0 12 3 10 7 -2 3 0 12 6 20 6 11 9 12 9 2 0 -8 5 -10 12 -6 8 5 9 1 5
-12 -6 -16 -4 -15 10 3 13 16 22 20 32 14 8 -5 21 -7 29 -4 12 5 12 2 3 -15
-7 -12 -9 -22 -7 -22 3 0 12 12 20 28 8 15 15 22 16 16 0 -9 97 -12 135 -4 25
6 46 -1 40 -12 -4 -7 1 -4 9 6 9 11 16 14 16 7 0 -7 4 -10 9 -6 5 3 12 1 15
-4 8 -12 36 -8 45 8 6 9 10 8 15 -6 7 -17 8 -17 22 1 8 11 14 14 14 8 0 -7 5
-12 11 -12 5 0 7 4 4 10 -4 7 3 7 19 0 14 -5 26 -7 26 -4 0 4 8 0 17 -7 9 -8
14 -9 10 -2 -9 14 60 13 82 -1 10 -6 12 -5 7 2 -7 11 31 18 59 12 6 -1 17 -3
25 -5 8 -1 14 -8 12 -15 -1 -6 2 -9 8 -5 6 3 7 11 4 17 -5 7 0 9 14 6 12 -4
25 -2 28 3 3 6 11 5 20 -2 11 -9 18 -8 31 2 15 12 16 12 10 -4 -6 -16 -4 -16
16 -2 14 9 27 11 36 6 8 -5 25 -7 39 -5 21 4 23 2 14 -9 -9 -11 -8 -14 3 -14
8 0 12 3 10 7 -2 3 0 12 6 20 6 11 9 12 9 2 0 -8 5 -10 12 -6 8 5 9 2 5 -10
-4 -10 -3 -15 3 -11 6 3 10 14 11 23 0 11 3 12 6 5 2 -7 9 -13 14 -13 6 0 7 4
4 10 -4 6 2 7 18 1 17 -7 29 -6 37 2 10 9 11 9 5 -2 -5 -9 1 -8 18 4 15 9 30
14 35 12 4 -3 14 -1 22 5 12 8 11 9 -4 4 -16 -5 -17 -4 -6 9 7 8 16 12 21 9 5
-3 17 9 27 25 10 17 22 28 26 24 4 -4 4 0 0 10 -3 9 -2 17 2 17 5 0 10 17 11
38 1 20 4 54 6 75 3 23 0 37 -7 37 -6 0 -4 5 4 10 12 8 12 10 1 10 -11 0 -11
3 0 17 11 13 11 17 1 21 -10 3 -10 7 0 20 10 12 10 16 1 19 -9 3 -10 10 -3 24
8 14 7 19 -1 19 -8 0 -8 4 1 15 9 11 9 15 1 15 -7 0 -9 5 -4 12 11 19 12 38 2
38 -6 0 -7 5 -3 12 11 18 11 88 -1 88 -5 0 -3 5 5 10 12 8 12 10 1 10 -11 0
-11 3 0 17 11 13 11 17 1 21 -10 3 -10 7 0 20 10 12 10 16 1 19 -9 3 -10 10
-3 24 8 14 7 19 -1 19 -8 0 -8 4 1 15 9 11 9 15 1 15 -7 0 -9 5 -4 13 11 18
12 37 2 37 -6 0 -7 5 -3 12 11 18 11 88 -1 88 -5 0 -3 5 5 10 12 8 12 10 1 10
-11 0 -11 3 0 17 11 13 11 17 1 21 -10 3 -10 7 0 20 10 12 10 16 1 19 -9 3
-10 10 -3 24 8 14 7 19 -1 19 -8 0 -8 4 1 15 9 11 9 15 1 15 -7 0 -9 5 -4 13
11 18 12 37 2 37 -6 0 -7 5 -3 12 11 18 11 88 -1 88 -5 0 -3 5 5 10 12 8 12
10 1 10 -11 0 -11 3 0 17 11 13 11 17 1 21 -10 3 -10 7 0 20 10 12 10 16 1 19
-9 3 -10 10 -3 24 8 14 7 19 -1 19 -8 0 -8 4 1 15 9 11 9 15 1 15 -7 0 -9 5
-4 13 11 18 12 37 2 37 -6 0 -7 5 -3 12 11 18 11 88 -1 88 -5 0 -3 5 5 10 12
8 12 10 1 10 -11 0 -11 3 0 17 11 13 11 17 1 21 -10 3 -10 7 0 20 10 12 10 16
1 19 -9 3 -10 10 -3 24 8 14 7 19 -1 19 -8 0 -8 4 1 15 9 11 9 15 1 15 -7 0
-9 5 -4 13 11 18 12 37 2 37 -6 0 -7 5 -3 12 11 18 11 88 -1 88 -5 0 -3 5 5
10 12 8 12 10 1 10 -11 0 -11 3 0 17 11 13 11 17 1 21 -10 3 -10 7 0 20 10 12
10 16 1 19 -9 3 -10 10 -3 24 8 14 7 19 -1 19 -8 0 -8 4 1 15 9 11 9 15 1 15
-7 0 -9 5 -4 13 11 18 12 37 2 37 -6 0 -7 6 -2 13 11 18 10 61 -2 69 -7 5 -7
8 0 8 12 0 13 40 2 57 -4 7 -3 14 1 17 16 10 -13 96 -43 129 -16 18 -28 36
-27 40 1 5 -2 6 -7 3 -5 -4 -15 0 -23 7 -7 8 -23 13 -35 12 -12 -1 -20 2 -17
7 3 5 -6 7 -20 4 -15 -3 -26 0 -26 6 0 7 -4 7 -13 0 -8 -7 -18 -7 -27 -2 -8 5
-21 5 -30 0 -11 -6 -21 -5 -28 2 -8 8 -12 8 -12 1 0 -10 -41 -10 -57 0 -5 3
-15 2 -23 -3 -9 -5 -19 -5 -27 2 -8 6 -13 7 -13 1 0 -6 -12 -8 -27 -6 -59 8
-95 8 -100 0 -3 -4 -11 -3 -19 4 -11 9 -14 9 -14 0 0 -8 -6 -9 -18 -2 -11 6
-24 6 -35 0 -12 -7 -17 -6 -17 2 0 9 -3 9 -14 0 -10 -9 -16 -9 -21 -1 -5 8
-11 8 -19 1 -9 -7 -16 -7 -24 1 -9 9 -12 9 -12 0 0 -9 -5 -10 -18 -3 -11 6
-24 6 -35 0 -12 -7 -17 -6 -17 1 0 6 -5 8 -12 4 -17 -11 -78 -11 -78 -1 0 4
-6 5 -12 1 -19 -12 -48 -12 -48 0 0 6 -4 6 -12 -2 -7 -7 -17 -8 -30 -1 -10 5
-18 6 -18 1 0 -10 -42 -8 -59 3 -6 3 -11 2 -11 -2 0 -5 -9 -9 -20 -9 -11 0
-20 4 -20 9 0 6 -5 6 -12 1 -16 -11 -39 -11 -55 -1 -7 5 -13 4 -13 0 0 -5 -9
-9 -20 -9 -11 0 -20 4 -20 9 0 6 -5 6 -12 1 -16 -11 -39 -11 -55 -1 -7 5 -13
4 -13 0 0 -5 -9 -9 -20 -9 -11 0 -20 4 -20 9 0 6 -5 6 -12 1 -16 -11 -39 -11
-55 -1 -7 5 -13 4 -13 -2 0 -7 -8 -7 -25 -1 -16 6 -26 6 -31 -1 -4 -6 -11 -6
-20 2 -11 9 -14 9 -14 0 0 -8 -6 -9 -18 -2 -11 6 -24 6 -35 0 -12 -7 -17 -6
-17 2 0 9 -3 9 -14 0 -10 -9 -16 -9 -21 -1 -5 8 -11 8 -19 1 -9 -7 -16 -7 -24
1 -9 9 -12 9 -12 0 0 -9 -5 -10 -18 -3 -11 6 -24 6 -35 0 -12 -7 -17 -6 -17 1
0 6 -5 8 -12 3 -16 -9 -48 -10 -69 -1 -8 4 -21 3 -29 -2 -8 -5 -21 -5 -30 0
-9 5 -22 5 -30 0 -9 -5 -19 -5 -27 2 -8 6 -13 7 -13 1 0 -10 -41 -10 -57 0 -5
3 -15 2 -23 -3 -9 -5 -19 -5 -27 2 -7 6 -13 6 -13 1 0 -10 -41 -10 -58 1 -7 4
-12 3 -12 -2 0 -11 -32 -11 -41 1 -3 4 -8 4 -12 1z"/>
<path d="M1450 316 c0 -2 8 -10 18 -17 15 -13 16 -12 3 4 -13 16 -21 21 -21
13z"/>
<path d="M2410 316 c0 -2 8 -10 18 -17 15 -13 16 -12 3 4 -13 16 -21 21 -21
13z"/>
<path d="M479 293 c-13 -16 -12 -17 4 -4 16 13 21 21 13 21 -2 0 -10 -8 -17
-17z"/>
<path d="M776 278 c3 -5 10 -6 15 -3 13 9 11 12 -6 12 -8 0 -12 -4 -9 -9z"/>
<path d="M936 282 c-3 -5 1 -9 9 -9 8 0 12 4 9 9 -3 4 -7 8 -9 8 -2 0 -6 -4
-9 -8z"/>
<path d="M996 278 c3 -4 11 -5 19 -1 21 7 19 12 -4 10 -11 0 -18 -5 -15 -9z"/>
<path d="M1236 278 c3 -4 11 -5 19 -1 21 7 19 12 -4 10 -11 0 -18 -5 -15 -9z"/>
<path d="M1415 280 c-3 -5 -1 -10 4 -10 6 0 11 5 11 10 0 6 -2 10 -4 10 -3 0
-8 -4 -11 -10z"/>
<path d="M1736 278 c3 -5 10 -6 15 -3 13 9 11 12 -6 12 -8 0 -12 -4 -9 -9z"/>
<path d="M1896 282 c-3 -5 1 -9 9 -9 8 0 12 4 9 9 -3 4 -7 8 -9 8 -2 0 -6 -4
-9 -8z"/>
<path d="M1956 278 c3 -4 11 -5 19 -1 21 7 19 12 -4 10 -11 0 -18 -5 -15 -9z"/>
<path d="M2196 278 c3 -4 11 -5 19 -1 21 7 19 12 -4 10 -11 0 -18 -5 -15 -9z"/>
<path d="M2375 280 c-3 -5 -1 -10 4 -10 6 0 11 5 11 10 0 6 -2 10 -4 10 -3 0
-8 -4 -11 -10z"/>
</g>
</svg>
